<mxfile host="65bd71144e">
    <diagram id="KnxmgnudgqGiJWSHdmvA" name="Page-1">
        <mxGraphModel dx="587" dy="453" grid="1" gridSize="10" guides="1" tooltips="1" connect="1" arrows="1" fold="1" page="1" pageScale="1" pageWidth="1200" pageHeight="1920" math="0" shadow="0">
            <root>
                <mxCell id="0"/>
                <mxCell id="1" parent="0"/>
                <mxCell id="2" value="应用层&lt;div&gt;Application Layer&lt;/div&gt;" style="rounded=0;whiteSpace=wrap;html=1;fontSize=16;fillColor=#CCFF99;" parent="1" vertex="1">
                    <mxGeometry x="201" y="200" width="160" height="60" as="geometry"/>
                </mxCell>
                <mxCell id="3" value="表示层&lt;div&gt;Presentation Layer&lt;/div&gt;" style="rounded=0;whiteSpace=wrap;html=1;fontSize=16;fillColor=#CCFF99;" parent="1" vertex="1">
                    <mxGeometry x="201" y="260" width="160" height="60" as="geometry"/>
                </mxCell>
                <mxCell id="4" value="会话层&lt;div&gt;Session Layer&lt;/div&gt;" style="rounded=0;whiteSpace=wrap;html=1;fontSize=16;fillColor=#CCFF99;" parent="1" vertex="1">
                    <mxGeometry x="201" y="320" width="160" height="60" as="geometry"/>
                </mxCell>
                <mxCell id="5" value="传输层&lt;div&gt;Transport Layer&lt;/div&gt;" style="rounded=0;whiteSpace=wrap;html=1;fontSize=16;fillColor=#99FFFF;" parent="1" vertex="1">
                    <mxGeometry x="201" y="380" width="160" height="60" as="geometry"/>
                </mxCell>
                <mxCell id="6" value="网络层&lt;div&gt;Network Layer&lt;/div&gt;" style="rounded=0;whiteSpace=wrap;html=1;fontSize=16;fillColor=#99FFFF;" parent="1" vertex="1">
                    <mxGeometry x="201" y="440" width="160" height="60" as="geometry"/>
                </mxCell>
                <mxCell id="7" value="数据链路层&lt;div&gt;Data Link Layer&lt;/div&gt;" style="rounded=0;whiteSpace=wrap;html=1;fontSize=16;fillColor=#FFE6CC;" parent="1" vertex="1">
                    <mxGeometry x="201" y="500" width="160" height="60" as="geometry"/>
                </mxCell>
                <mxCell id="8" value="物理层&lt;div&gt;Physical Layer&lt;/div&gt;" style="rounded=0;whiteSpace=wrap;html=1;fontSize=16;fillColor=#FFE6CC;" parent="1" vertex="1">
                    <mxGeometry x="201" y="560" width="160" height="60" as="geometry"/>
                </mxCell>
                <mxCell id="34" value="压缩解压、加密解密" style="text;html=1;align=left;verticalAlign=middle;resizable=0;points=[];autosize=1;strokeColor=none;fillColor=none;fontSize=14;" parent="1" vertex="1">
                    <mxGeometry x="370" y="275" width="150" height="30" as="geometry"/>
                </mxCell>
                <mxCell id="35" value="创建、注销会话" style="text;html=1;align=left;verticalAlign=middle;resizable=0;points=[];autosize=1;strokeColor=none;fillColor=none;fontSize=14;" parent="1" vertex="1">
                    <mxGeometry x="370" y="340" width="120" height="30" as="geometry"/>
                </mxCell>
                <mxCell id="36" value="为应用层实体提供&lt;font style=&quot;color: rgb(255, 0, 0);&quot;&gt;端到端的传输，传输报文（segment）&lt;/font&gt;" style="text;html=1;align=left;verticalAlign=middle;resizable=0;points=[];autosize=1;strokeColor=none;fillColor=none;fontSize=14;" parent="1" vertex="1">
                    <mxGeometry x="369" y="400" width="370" height="30" as="geometry"/>
                </mxCell>
                <mxCell id="37" value="定义逻辑地址、选择路由线路" style="text;html=1;align=left;verticalAlign=middle;resizable=0;points=[];autosize=1;strokeColor=none;fillColor=none;fontSize=14;" parent="1" vertex="1">
                    <mxGeometry x="370" y="460" width="210" height="30" as="geometry"/>
                </mxCell>
                <mxCell id="38" value="将分组数据封装成帧，提供&lt;font style=&quot;color: rgb(255, 0, 0);&quot;&gt;节点到节点的传输&lt;/font&gt;" style="text;html=1;align=left;verticalAlign=middle;resizable=0;points=[];autosize=1;strokeColor=none;fillColor=none;fontSize=14;" parent="1" vertex="1">
                    <mxGeometry x="370" y="520" width="300" height="30" as="geometry"/>
                </mxCell>
                <mxCell id="39" value="&lt;font style=&quot;font-size: 18px;&quot;&gt;&lt;b style=&quot;&quot;&gt;OSI 七层模型&lt;/b&gt;&lt;/font&gt;" style="text;html=1;align=center;verticalAlign=middle;resizable=0;points=[];autosize=1;strokeColor=none;fillColor=none;" parent="1" vertex="1">
                    <mxGeometry x="216" y="140" width="130" height="40" as="geometry"/>
                </mxCell>
                <mxCell id="40" value="在媒介上传输比特流；提供机械和电气规约" style="text;html=1;align=left;verticalAlign=middle;resizable=0;points=[];autosize=1;strokeColor=none;fillColor=none;fontSize=14;" parent="1" vertex="1">
                    <mxGeometry x="370" y="580" width="290" height="30" as="geometry"/>
                </mxCell>
            </root>
        </mxGraphModel>
    </diagram>
</mxfile>